<svg
  viewBox="0 0 512 512"
  xmlns="http://www.w3.org/2000/svg"
  fill-rule="evenodd"
  clip-rule="evenodd"
  stroke-linejoin="round"
  stroke-miterlimit="2"
>
  <g fill-rule="nonzero">
    <path
      d="M1.92 110.44a15.004 15.004 0 00-1.327 11.522L71 364.701V87.026l-59.933 16.282a15.008 15.008 0 00-9.147 7.132zM510.079 110.44a15 15 0 00-9.146-7.132L441 87.026v277.675l70.406-242.738a15.002 15.002 0 00-1.327-11.523zM396 31H116c-8.284 0-15 6.716-15 15v420c0 8.284 6.716 15 15 15h280c8.284 0 15-6.716 15-15V46c0-8.284-6.716-15-15-15z"
    />
  </g>
</svg>
